Coordinates
version=1
nRows=30
nColumns=23
inDegrees=yes

Units are S.I. units (second, meters, Newtons, ...)
If the header above contains a line with 'inDegrees', this indicates whether rotational values are in degrees (yes) or radians (no).

endheader
time	pelvis_tilt	pelvis_list	pelvis_rotation	pelvis_tx	pelvis_ty	pelvis_tz	hip_flexion_r	hip_adduction_r	hip_rotation_r	knee_angle_r	knee_angle_r_beta	ankle_angle_r	subtalar_angle_r	mtp_angle_r	hip_flexion_l	hip_adduction_l	hip_rotation_l	knee_angle_l	knee_angle_l_beta	ankle_angle_l	subtalar_angle_l	mtp_angle_l
     22.50000000	    -10.01555166	      6.34523734	      8.22469683	      2.42365551	      1.01717561	      0.96810767	     32.07186121	    -10.14796112	      0.04607651	    107.54204599	      1.87696279	      3.56110126	    -24.44539373	      0.00000000	     18.34089529	      9.44753168	      0.09216937	     39.00747486	      0.68080887	     23.34239271	     -2.04577079	      0.00000000
     22.50666667	     -9.48527545	      5.62985412	      7.65525332	      2.42446505	      1.02212297	      0.96884808	     33.08559289	     -8.97864402	      0.09093050	    106.30008111	      1.85528641	      3.74282072	    -24.25818960	      0.00000000	     15.84532511	      8.13929186	     -0.42987591	     37.74946617	      0.65885248	     22.57479466	     -1.06793544	      0.00000000
     22.51333333	     -9.01477528	      4.92620457	      7.15938732	      2.42548581	      1.02738024	      0.96939895	     33.99544827	     -7.90733018	     -0.00759453	    104.79173916	      1.82896088	      3.90878699	    -24.09682795	      0.00000000	     13.38520315	      6.95391853	     -0.84233721	     36.37668782	      0.63489297	     21.31013432	     -0.43015163	      0.00000000
     22.52000000	     -8.49458534	      4.18437182	      6.72810587	      2.42682676	      1.03306978	      0.96984655	     34.66581753	     -6.85013920	     -0.27331292	    102.99753356	      1.79764608	      4.08338396	    -23.98030883	      0.00000000	     10.86171875	      5.77462228	     -1.23232374	     34.91007719	      0.60929579	     19.55222367	     -0.00460641	      0.00000000
     22.52666667	     -8.57782470	      3.65938202	      6.19394407	      2.42796208	      1.03795889	      0.97043982	     35.98496232	     -5.98230951	     -0.27909475	    101.16503760	      1.76566299	      4.37231210	    -23.73801770	      0.00000000	      9.05331716	      4.90771448	     -1.86511822	     33.50875433	      0.58483809	     17.33227373	      0.24283300	      0.00000000
     22.53333333	     -7.30059172	      2.59480450	      6.03298540	      2.43040528	      1.04542575	      0.97044224	     35.30173486	     -4.78573438	     -1.21246510	     98.62785924	      1.72138088	      4.54841267	    -23.74585668	      0.00000000	      5.70563011	      3.40752759	     -2.03901596	     31.83113765	      0.55555816	     14.75841126	      0.42462583	      0.00000000
     22.54000000	     -7.21144753	      2.09674109	      5.52934171	      2.43218206	      1.05089772	      0.97094046	     36.08174097	     -3.99539260	     -1.35933449	     96.32484261	      1.68118565	      4.91415037	    -23.58087205	      0.00000000	      3.73742063	      2.62174436	     -2.75322765	     30.34000323	      0.52953295	     11.86492330	      0.43473193	      0.00000000
     22.54666667	     -6.23728440	      1.18412163	      5.48476775	      2.43479299	      1.05799574	      0.97070986	     35.48275609	     -3.08033033	     -2.29513410	     93.48258763	      1.63157895	      5.25408835	    -23.47283661	      0.00000000	      0.83213724	      1.41678446	     -2.83407346	     28.69892059	      0.50089066	      8.52750312	      0.17229752	      0.00000000
     22.55333333	     -5.84311076	      0.63056556	      5.19606925	      2.43713254	      1.06402026	      0.97085898	     35.54236040	     -2.38667285	     -2.74738259	     90.69429872	      1.58291413	      5.70164665	    -23.28542888	      0.00000000	     -1.36945080	      0.65874629	     -3.21461046	     27.19960576	      0.47472268	      5.06970977	     -0.15183279	      0.00000000
     22.56000000	     -5.40053793	      0.05808823	      4.96004914	      2.43965522	      1.07005737	      0.97091042	     35.39401045	     -1.73164123	     -3.29756723	     87.71341406	      1.53088787	      6.23597403	    -23.03807938	      0.00000000	     -3.54818683	     -0.08967248	     -3.50636016	     25.76466478	      0.44967823	      1.49804663	     -0.57961547	      0.00000000
     22.56666667	     -5.13441105	     -0.35902645	      4.68540686	      2.44215886	      1.07558601	      0.97102456	     35.34994841	     -1.21553893	     -3.72114789	     84.65384006	      1.47748823	      6.79482536	    -22.71276685	      0.00000000	     -5.43659220	     -0.63784902	     -3.82438567	     24.49896979	      0.42758769	     -2.06695335	     -1.04126082	      0.00000000
     22.57333333	     -5.00171709	     -0.59829551	      4.37539125	      2.44457890	      1.08062594	      0.97114323	     35.36712815	     -0.88670222	     -4.04362010	     81.52207144	      1.42282856	      7.40428849	    -22.32016740	      0.00000000	     -7.07378975	     -0.96234322	     -4.14059417	     23.41368817	      0.40864595	     -5.55084253	     -1.49541719	      0.00000000
     22.58000000	     -5.21200150	     -0.62712622	      3.88164354	      2.44664314	      1.08475142	      0.97168718	     35.74807845	     -0.60889591	     -4.03969052	     78.38347150	      1.36804966	      8.06032129	    -21.76331679	      0.00000000	     -8.14128279	     -1.05198781	     -4.69908365	     22.74421611	      0.39696146	     -8.72607267	     -1.74573950	      0.00000000
     22.58666667	     -4.93617873	     -0.92395162	      3.74925986	      2.44922004	      1.08947861	      0.97146715	     35.30962850	     -0.40674873	     -4.67722414	     74.87109650	      1.30674715	      8.60370902	    -21.20720876	      0.00000000	     -9.70946696	     -1.39754461	     -4.60510915	     22.00913145	      0.38413181	    -11.71145666	     -2.43670208	      0.00000000
     22.59333333	     -5.10862644	     -0.86039263	      3.35431533	      2.45121442	      1.09297224	      0.97164650	     35.41033753	     -0.37560903	     -4.85601590	     71.44198270	      1.24689782	      9.20143158	    -20.41501028	      0.00000000	    -10.60282436	     -1.32322451	     -4.79085476	     21.71416133	      0.37898361	    -14.20157708	     -2.85527956	      0.00000000
     22.60000000	     -5.74814923	     -0.58555245	      2.84057418	      2.45276649	      1.09526040	      0.97206146	     36.01813395	     -0.47373548	     -4.81505766	     68.01426647	      1.18707289	      9.69891682	    -19.59353508	      0.00000000	    -10.75419419	     -1.03521114	     -5.19750454	     21.94337577	      0.38298416	    -16.06088459	     -2.95070337	      0.00000000
     22.60666667	     -6.27926661	     -0.33503741	      2.34446252	      2.45421549	      1.09732601	      0.97239888	     36.38969405	     -0.55814812	     -4.86227489	     64.40179057	      1.12402329	     10.18027464	    -18.50494754	      0.00000000	    -10.94678751	     -0.71951572	     -5.32146089	     22.30995415	      0.38938216	    -17.46119743	     -3.22355765	      0.00000000
     22.61333333	     -6.13155753	     -0.38556207	      2.11602332	      2.45597842	      1.10008843	      0.97219946	     35.76043949	     -0.58355920	     -5.52311685	     60.42665543	      1.05464409	     10.76834799	    -16.80752891	      0.00000000	    -11.86593012	     -0.67949135	     -4.82682383	     22.63753100	      0.39509945	    -18.35004207	     -3.78014345	      0.00000000
     22.62000000	     -6.86807559	     -0.01323086	      1.48689102	      2.45692203	      1.10097910	      0.97274468	     36.21405281	     -0.65154287	     -5.44088944	     56.57274306	      0.98738063	     11.04399878	    -15.54544641	      0.00000000	    -11.62777404	     -0.15353713	     -4.81865396	     23.46160333	      0.40948223	    -18.54654141	     -3.93835779	      0.00000000
     22.62666667	     -7.00068345	     -0.07909587	      1.27206729	      2.45816428	      1.10244746	      0.97250418	     35.72232482	     -0.71925434	     -6.37426805	     52.39282467	      0.91442729	     11.73163155	    -13.00402090	      0.00000000	    -11.90091643	     -0.18253222	     -4.55231542	     24.52046995	      0.42796293	    -18.20187225	     -3.85395778	      0.00000000
     22.63333333	     -7.28772119	     -0.09770637	      0.94149227	      2.45917491	      1.10331275	      0.97255556	     35.32264227	     -0.66344864	     -7.14793336	     48.09499001	      0.83941593	     12.22142656	    -10.59710743	      0.00000000	    -11.93637690	     -0.12783918	     -4.33990375	     25.74029074	      0.44925282	    -17.50309527	     -3.70854680	      0.00000000
     22.64000000	     -7.42476768	     -0.24614337	      0.69017349	      2.46015172	      1.10401697	      0.97252802	     34.61608768	     -0.52061331	     -8.22258483	     43.65835152	      0.76198198	     12.73803691	     -7.75939536	      0.00000000	    -12.03449972	     -0.25122136	     -4.17803862	     27.15021651	      0.47386067	    -16.50727202	     -3.39443028	      0.00000000
     22.64666667	     -8.10390344	     -0.04701123	      0.08046193	      2.46052446	      1.10343096	      0.97330656	     34.58082952	     -0.26483656	     -8.42158595	     39.34956064	      0.68677939	     13.07911788	     -5.57168883	      0.00000000	    -11.47023653	      0.11295690	     -4.03827700	     28.71856613	      0.50123354	    -15.54969859	     -3.64796192	      0.00000000
     22.65333333	     -6.73705917	     -1.28846483	      0.53007175	      2.46264602	      1.10580830	      0.97248949	     31.58150238	      0.58005219	    -11.15253437	     34.19509769	      0.59681704	     13.74729944	     -1.54519213	      0.00000000	    -13.09076891	     -1.46673805	     -4.03778918	     30.28379625	      0.52855195	    -14.35107541	     -2.57447965	      0.00000000
     22.66000000	     -6.29747278	     -1.86397378	      0.50507488	      2.46379666	      1.10604709	      0.97272062	     29.87629117	      1.37542423	    -12.47665857	     29.54114990	      0.51559033	     14.28509407	      1.51722184	      0.00000000	    -13.54334708	     -2.28132253	     -4.31933856	     32.19871180	      0.56197354	    -13.26883030	     -1.88008073	      0.00000000
     22.66666667	     -5.60348431	     -2.56242109	      0.54738518	      2.46490713	      1.10614123	      0.97309677	     27.80429448	      2.50451667	    -13.32700208	     24.84859263	      0.43368976	     14.60229164	      3.80406438	      0.00000000	    -14.17868454	     -3.28217688	     -4.63645672	     34.26413974	      0.59802205	    -12.37365870	     -1.43921024	      0.00000000
     22.67333333	     -4.86326467	     -3.21030171	      0.60482851	      2.46582090	      1.10565935	      0.97355105	     25.69176533	      3.73802461	    -13.51336805	     20.35429450	      0.35524946	     14.74880545	      5.24119282	      0.00000000	    -14.73836576	     -4.29064193	     -5.04112045	     36.55423266	      0.63799172	    -11.58986421	     -1.17619929	      0.00000000
     22.68000000	     -4.01764647	     -3.89007343	      0.73614190	      2.46665207	      1.10475707	      0.97394671	     23.40811632	      5.10595872	    -12.93350499	     15.98441693	      0.27898070	     14.60960318	      5.59178315	      0.00000000	    -15.30595032	     -5.39821091	     -5.46568719	     39.01255170	      0.68089748	    -11.09962861	     -1.15710799	      0.00000000
     22.68666667	     -3.09579240	     -4.47550724	      0.91229723	      2.46733562	      1.10330803	      0.97410382	     21.06572329	      6.34476382	    -11.79741011	     11.99125225	      0.20928683	     14.17463135	      5.03839652	      0.00000000	    -15.83397992	     -6.40032934	     -5.75314376	     41.65278265	      0.72697820	    -10.66928409	     -1.59180360	      0.00000000
     22.69333333	     -2.22759198	     -4.94009070	      1.07380178	      2.46774944	      1.10113898	      0.97406085	     18.96059763	      7.32512829	    -10.50396557	      8.74558921	      0.15263933	     13.60539884	      4.11352191	      0.00000000	    -16.17595048	     -7.25000507	     -5.93512417	     44.48852298	      0.77647121	    -10.46964498	     -2.48388012	      0.00000000
